<svg width="200" height="36" viewBox="0 0 200 36" fill="none" xmlns="http://www.w3.org/2000/svg">
<g clip-path="url(#clip0_23_68)">
<path d="M48.5625 20.6068C48.5625 26.7824 52.8353 31.8751 60.5666 31.8751C64.2872 31.8751 67.3682 30.9092 69.5772 29.5336V24.558C69.5772 23.0458 69.6595 22.4361 71.4761 22.2751V20.6361H61.9911V22.2751C64.1709 22.3629 64.9269 22.7434 64.9269 24.558V28.597C64.0256 29.358 62.9213 29.7092 61.1192 29.7092C55.9744 29.7092 53.6491 25.0555 53.6491 19.5238C53.6491 14.7824 55.4801 10.5385 60.3925 10.5385C63.8511 10.5385 65.7695 12.2653 66.9031 15.8068H68.9958L68.8798 10.7141C67.1937 9.48484 64.5489 8.46045 60.7994 8.46045C53.9978 8.46045 48.5625 13.1434 48.5625 20.6068Z" fill="white"/>
<path d="M82.6075 29.9141C79.8463 29.9141 78.3929 27.0459 78.3929 22.8897C78.3929 19.6995 79.323 17.4459 81.7062 17.4459C84.4385 17.4459 85.8919 20.3141 85.8919 24.4702C85.8919 27.6897 84.991 29.9141 82.6075 29.9141ZM81.8519 31.8751C86.7057 31.8751 90.4845 28.597 90.4845 23.3873C90.4845 18.88 87.2871 15.4849 82.4329 15.4849C77.5791 15.4849 73.8003 18.7629 73.8003 23.9727C73.8003 28.5093 76.9977 31.8751 81.8519 31.8751Z" fill="white"/>
<path d="M98.3592 10.4213L98.5045 7.875H97.4291L92.1683 9.19207V10.0701L94.0575 11.2994V28.3921C94.0575 29.7384 93.3601 29.8848 92.0231 30.0604V31.5823H100.423V30.0604C99.0859 29.8848 98.3592 29.7384 98.3592 28.3921V10.4213Z" fill="white"/>
<path d="M110.859 17.3872C112.777 17.3872 114.114 18.4994 114.114 20.636V27.7189C113.271 28.4799 112.225 28.9189 110.946 28.9189C108.039 28.9189 106.644 26.4311 106.644 23.1238C106.644 19.5823 108.243 17.3872 110.859 17.3872ZM120.538 30.8799V29.2994L119.811 29.2701C118.707 29.2116 118.416 28.8018 118.416 27.8067V10.4213L118.561 7.875H117.486L112.225 9.19207V10.0701L114.114 11.2994V16.4799C113.213 15.8652 111.992 15.4848 110.481 15.4848C105.918 15.4848 102.168 18.9092 102.168 24.4116C102.168 28.8311 104.668 31.875 108.941 31.875C111.237 31.875 113.01 30.7335 114.114 29.0945L113.969 31.875H114.812L120.538 30.8799Z" fill="white"/>
<path d="M139.992 15.7775H129.15V14.2262C129.15 11.1531 129.935 9.57255 132.057 9.57255C133.452 9.57255 134.062 10.4213 134.062 11.8848V13.0555H137.289C138.045 12.675 138.393 11.8848 138.393 11.0652C138.393 9.19207 136.679 7.875 132.871 7.875C127.901 7.875 124.849 10.5384 124.849 14.9287V15.3092L122.611 16.3628V17.6799H124.849V28.3921C124.849 29.7384 124.151 29.8848 122.814 30.0604V31.5823H131.447V30.0604C129.79 29.8555 129.15 29.7384 129.15 28.3335V17.6799H135.516V28.3921C135.516 29.7384 134.818 29.8848 133.481 30.0604V31.5823H141.881V30.0604C140.544 29.8848 139.847 29.7384 139.847 28.3921V18.6165L139.992 15.7775Z" fill="white"/>
<path d="M156.674 28.3921C156.674 29.7384 155.976 29.8848 154.639 30.0604V31.5824H163.039V30.0604C161.702 29.8848 160.976 29.7384 160.976 28.3921V20.2848C160.976 16.9482 158.97 15.4848 156.093 15.4848C153.68 15.4848 151.587 16.9482 150.308 18.3531L150.453 15.4263H149.378L144.117 16.9482V17.8263L146.007 19.2019V28.3921C146.007 29.7384 145.309 29.8848 143.972 30.0604V31.5824H152.372V30.0604C151.035 29.8848 150.308 29.7384 150.308 28.3921V19.6702C151.326 19.0263 152.837 18.4702 154.203 18.4702C155.86 18.4702 156.674 19.1141 156.674 20.8409V28.3921Z" fill="white"/>
<path d="M168.382 22.5385C168.382 19.2312 170.009 17.3873 172.306 17.3873C174.195 17.3873 174.776 18.5873 174.776 20.3727V21.6019H177.566C178.293 21.3093 178.787 20.5776 178.787 19.5239C178.787 17.0653 176.346 15.4849 172.916 15.4849C168.033 15.4849 164.371 18.9092 164.371 24.1776C164.371 28.5093 167.161 31.8751 171.986 31.8751C175.939 31.8751 178.177 29.7678 179.107 26.8995L178.003 26.3434C177.014 27.5727 175.59 28.5385 173.497 28.5385C170.097 28.5385 168.382 26.2263 168.382 22.5385Z" fill="white"/>
<path d="M182.384 11.2994V28.3921C182.384 29.7384 181.686 29.8848 180.349 30.0604V31.5823H188.72V30.0604C187.383 29.8848 186.686 29.7384 186.686 28.3921V19.6701C187.674 19.0262 189.214 18.4701 190.551 18.4701C192.208 18.4701 193.051 19.114 193.051 20.8408V28.3921C193.051 29.7384 192.354 29.8848 191.017 30.0604V31.5823H199.387V30.0604C198.05 29.8848 197.353 29.7384 197.353 28.3921V20.2848C197.353 16.9482 195.318 15.4848 192.441 15.4848C190.057 15.4848 187.964 16.9482 186.686 18.3531V10.4213L186.831 7.875H185.755L180.495 9.19207V10.0701L182.384 11.2994Z" fill="white"/>
<path d="M28.2783 8.35349C27.6183 9.09175 26.0782 9.08459 25.4182 8.42017C24.7581 7.75574 24.5381 6.46964 25.4182 5.65754C26.2982 4.84548 27.6183 5.14162 28.2783 5.7322C28.9384 6.32283 28.9384 7.61523 28.2783 8.35349Z" fill="white"/>
<path d="M21.3491 3.07827C20.6285 3.96261 20.3488 4.47771 19.805 5.88737C19.1004 7.71404 18.4668 9.73105 18.2095 10.9795C17.9522 12.228 18.4648 13.3003 19.6333 14.0314C20.8695 14.8048 22.202 15.4068 24.0034 16.0831C25.8048 16.7593 27.0973 17.7234 27.509 18.7118C27.9208 19.7002 27.8272 21.6035 26.9008 23.4242C25.9743 25.2449 24.6832 26.9368 22.4186 28.6014C20.154 30.2661 18.6071 30.6619 16.3678 31.1821C14.1285 31.7023 14.8639 32.984 15.6359 33.2441C16.4079 33.5042 18.1063 33.7643 20.3709 33.6603C22.6357 33.5562 24.8974 32.984 27.5737 31.6315C30.2501 30.279 32.8749 27.9381 34.2674 24.8169C35.6599 21.6956 36.2151 17.2921 34.6016 14.5169C33.6641 12.9043 33.1837 12.516 32.8749 11.4997C32.5661 10.4834 32.7638 9.70907 33.339 9.00276C33.6707 8.59555 34.412 8.18556 35.0911 7.69528C35.6263 7.30885 36.2718 6.92196 36.735 6.60985C37.1983 6.29774 37.3557 6.13469 37.0469 5.9266L37.0358 5.91913C36.7234 5.70861 36.1077 5.2936 35.0366 4.89317C33.9528 4.48798 33.7487 4.43222 33.339 4.39911C32.9294 4.366 32.4147 4.73012 31.5912 5.35438C30.7678 5.97861 30.4074 6.10052 30.356 6.81092C30.3045 7.52136 30.0987 8.42357 29.5325 9.20387C28.9663 9.98417 28.2074 10.3804 27.1913 10.4834C26.1751 10.5866 24.801 10.2708 24.1253 9.47095C23.4497 8.67107 23.1774 8.21492 23.1774 7.08062C23.1774 5.94636 23.6136 5.1463 24.1936 4.57408C24.7735 4.00184 24.7459 3.79378 24.7459 3.53367C24.7459 3.27357 24.6112 2.38883 24.4984 1.97637C24.3857 1.5639 23.9811 1.49897 23.3206 1.71607C22.6289 1.94341 22.0696 2.19393 21.3491 3.07827Z" fill="white"/>
<path d="M11.1453 24.7893C10.8117 24.8774 10.5779 25.4504 9.92317 26.5962C9.26847 27.7421 8.65424 28.5794 7.48222 29.8575C6.31023 31.1356 5.574 31.6645 3.70963 32.8103L3.66149 32.8399C1.83585 33.962 1.29891 34.292 1.17223 34.6314C1.04444 34.9737 1.1196 35.4247 2.49013 35.6363C3.86066 35.8478 5.00324 35.8954 6.98305 34.5292C8.96289 33.1629 10.5185 31.8408 12.5699 30.8712C14.6213 29.9016 15.2635 29.9625 17.5613 29.2846C19.8591 28.6067 21.9538 27.2764 23.3993 25.6598C24.8448 24.0432 25.5675 22.4138 25.8602 21.488C26.1529 20.5621 26.1945 19.3284 25.4126 18.7113C24.6656 18.1217 24.262 17.9445 22.6132 17.3274C20.8597 16.6711 20.2775 16.5067 18.9857 15.4782C17.7683 14.509 17.8406 14.2773 17.0756 14.1745C16.3106 14.0716 15.7308 15.2174 15.4726 15.791C15.2784 16.2227 15.2452 16.9847 15.7595 17.702C16.2738 18.4193 16.752 19.2087 18.1606 20.0101C19.5693 20.8116 20.2256 20.9398 21.1861 21.1001C22.1465 21.2604 22.5215 21.488 22.2634 21.9445C22.0053 22.401 21.489 22.6224 20.6114 22.6224C19.7338 22.6224 18.4948 22.218 17.2558 21.488C16.382 20.9731 15.7587 20.3929 15.3032 19.8192C14.8605 19.2617 14.595 19.1806 14.1846 19.1806C13.7741 19.1806 13.4365 19.4414 12.9456 20.1715C12.4547 20.9015 12.0933 21.6924 12.0417 22.1208C11.99 22.5491 11.9437 23.0269 12.7181 23.6005C13.4925 24.1742 14.1615 24.486 15.0392 24.6424C15.9168 24.7988 16.5847 25.0733 15.9418 25.6598C15.299 26.2462 14.5197 26.1163 13.9002 25.9598C13.2807 25.8034 12.3818 25.3181 12.0417 25.0978C11.7015 24.8774 11.4788 24.7011 11.1453 24.7893Z" fill="white"/>
<path d="M30.6021 4.19726C31.0679 3.90701 31.5826 3.52603 31.5826 3.25953C31.5826 2.99304 31.3204 2.67325 30.2194 1.98036C29.1183 1.28748 27.5978 0.500543 26.6016 0.381368C25.6053 0.262197 26.0369 1.84734 26.1543 2.47422C26.2717 3.1011 26.3067 3.58913 26.7207 3.63981C27.1347 3.69049 27.4452 3.74115 27.8075 3.84251C28.1698 3.94387 28.6355 4.16242 29.153 4.46647C29.6706 4.77056 30.1363 4.48751 30.6021 4.19726Z" fill="white"/>
</g>
<defs>
<clipPath id="clip0_23_68">
<rect width="199" height="36" fill="white" transform="translate(0.758057)"/>
</clipPath>
</defs>
</svg>
