<svg width="527" height="778" viewBox="0 0 527 778" fill="none" xmlns="http://www.w3.org/2000/svg">
<g filter="url(#filter0_f_61_1065)">
<path d="M-213 202C-213 70.5562 -106.444 -36 25 -36H40C171.444 -36 278 70.5562 278 202V202C278 333.444 171.444 440 40 440H25C-106.444 440 -213 333.444 -213 202V202Z" fill="#F180CB" fill-opacity="0.2"/>
</g>
<g filter="url(#filter1_f_61_1065)">
<path d="M-64 440C-64 308.556 42.5562 202 174 202H189C320.444 202 427 308.556 427 440V440C427 571.444 320.444 678 189 678H174C42.5562 678 -64 571.444 -64 440V440Z" fill="#A4ABEB" fill-opacity="0.2"/>
</g>
<defs>
<filter id="filter0_f_61_1065" x="-313" y="-136" width="691" height="676" filterUnits="userSpaceOnUse" color-interpolation-filters="sRGB">
<feFlood flood-opacity="0" result="BackgroundImageFix"/>
<feBlend mode="normal" in="SourceGraphic" in2="BackgroundImageFix" result="shape"/>
<feGaussianBlur stdDeviation="50" result="effect1_foregroundBlur_61_1065"/>
</filter>
<filter id="filter1_f_61_1065" x="-164" y="102" width="691" height="676" filterUnits="userSpaceOnUse" color-interpolation-filters="sRGB">
<feFlood flood-opacity="0" result="BackgroundImageFix"/>
<feBlend mode="normal" in="SourceGraphic" in2="BackgroundImageFix" result="shape"/>
<feGaussianBlur stdDeviation="50" result="effect1_foregroundBlur_61_1065"/>
</filter>
</defs>
</svg>
