<svg width="204" height="37" viewBox="0 0 204 37" fill="none" xmlns="http://www.w3.org/2000/svg">
<g clip-path="url(#clip0_23_43)">
<path d="M44.9598 15.4295C40.952 15.4295 38.9386 13.5949 38.9386 9.92577C38.9386 6.25667 40.952 4.42212 44.9598 4.42212H57.0023V8.09119H45.5486C43.5353 8.09119 42.5285 8.70916 42.5285 9.92577C42.5285 11.1424 43.5353 11.7604 45.5486 11.7604H50.962C54.9699 11.7604 56.9833 13.5949 56.9833 17.264C56.9833 20.9331 54.9699 22.7677 50.962 22.7677H38.9386V19.1179H50.3922C52.4056 19.1179 53.4123 18.4999 53.4123 17.2833C53.4123 16.0667 52.4056 15.4487 50.3922 15.4487H44.9598V15.4295Z" fill="white"/>
<path d="M75.0849 4.42212H78.6937V16.6653C78.6937 20.74 76.6802 22.787 72.673 22.787H66.6515C62.6437 22.787 60.6302 20.74 60.6302 16.6653V4.42212H64.2392V16.1632C64.2392 18.133 65.2079 19.1178 67.1264 19.1178H72.1786C74.1166 19.1178 75.0849 18.133 75.0849 16.144V4.42212Z" fill="white"/>
<path d="M94.554 4.42212C98.5619 4.42212 100.575 6.25667 100.575 9.92577C100.575 11.9728 99.9675 13.1893 98.7707 13.5949C99.9675 14.0004 100.575 15.2363 100.575 17.264C100.575 20.9331 98.5619 22.7677 94.554 22.7677H82.5119V4.42212H94.554ZM94.0413 11.7024C95.6366 11.7024 96.4349 11.1037 96.4349 9.88713C96.4349 8.67058 95.4469 8.07194 93.4524 8.07194H85.7025V11.7217H94.0413V11.7024ZM94.554 15.4295H86.1207V19.0986H93.9461C95.9596 19.0986 96.9667 18.4806 96.9667 17.264C96.9667 16.0474 96.169 15.4295 94.554 15.4295Z" fill="white"/>
<path d="M110.225 15.4295C106.217 15.4295 104.203 13.5949 104.203 9.92577C104.203 6.25667 106.217 4.42212 110.225 4.42212H122.267V8.09119H110.813C108.8 8.09119 107.794 8.70916 107.794 9.92577C107.794 11.1424 108.8 11.7604 110.813 11.7604H116.246C120.254 11.7604 122.267 13.5949 122.267 17.264C122.267 20.9331 120.254 22.7677 116.246 22.7677H104.203V19.1179H115.657C117.671 19.1179 118.677 18.4999 118.677 17.2833C118.677 16.0667 117.671 15.4487 115.657 15.4487H110.225V15.4295Z" fill="white"/>
<path d="M130.074 22.787H126.465V4.42212H138.507C142.515 4.42212 144.529 6.25667 144.529 9.92577C144.529 13.5949 142.515 15.4295 138.507 15.4295H130.074V22.787ZM136.987 11.7024C138.982 11.7024 139.97 11.1037 139.97 9.88713C139.97 8.67058 138.982 8.07194 136.987 8.07194H129.238V11.7217H136.987V11.7024Z" fill="white"/>
<path d="M148.688 19.1178L147.131 22.787H143.199L151.044 4.42212H154.975L162.82 22.787H158.888L157.331 19.1178H148.688ZM155.716 15.4295L152.981 9.01818L150.246 15.4295H155.716Z" fill="white"/>
<path d="M182.517 19.1178V22.787H170.475C166.467 22.787 164.454 20.74 164.454 16.6653V10.5437C164.454 6.46909 166.467 4.42212 170.475 4.42212H182.517V8.09119H170.969C169.031 8.09119 168.063 9.07607 168.063 11.0265V16.1632C168.063 18.133 169.031 19.1178 170.969 19.1178H182.517Z" fill="white"/>
<path d="M189.545 19.1178H204V22.787H185.937V4.42212H204V8.09119H189.545V11.7604H204V15.4295H189.545V19.1178Z" fill="white"/>
<path d="M136.361 31.1488V37.0001H134.709V28.6191H136.399L141.318 34.4703V28.6191H142.971V37.0001H141.299L136.361 31.1488Z" fill="#B5B5B5"/>
<path d="M146.257 35.32H152.848V37.0001H144.605V28.6191H152.848V30.2992H146.257V31.9792H152.848V33.6593H146.257V35.32Z" fill="#B5B5B5"/>
<path d="M157.806 30.2797H154.52V28.5996H162.763V30.2797H159.458V36.9806H157.806V30.2797Z" fill="#B5B5B5"/>
<path d="M166.03 36.9806L163.561 28.5996H165.29L166.904 34.0646L168.518 28.5996H170.247L171.861 34.0646L173.476 28.5996H175.205L172.735 36.9806H171.006L169.392 31.5156L167.778 36.9806H166.03Z" fill="#B5B5B5"/>
<path d="M181.454 36.9806H178.699C176.857 36.9806 175.945 36.0537 175.945 34.1805V31.3805C175.945 29.5072 176.857 28.5803 178.699 28.5803H181.454C183.296 28.5803 184.208 29.5072 184.208 31.3805V34.1805C184.208 36.0537 183.296 36.9806 181.454 36.9806ZM181.188 35.3199C182.099 35.3199 182.556 34.8564 182.556 33.9295V31.6701C182.556 30.7432 182.099 30.2797 181.188 30.2797H178.718C177.978 30.2797 177.617 30.7432 177.617 31.6701V33.9102C177.617 34.8371 178.073 35.3005 178.984 35.3005H181.188V35.3199Z" fill="#B5B5B5"/>
<path d="M188.31 33.64H187.513V37.0001H185.86V28.6191H191.369C193.211 28.6191 194.123 29.4495 194.123 31.1296C194.123 32.8096 193.211 33.64 191.369 33.64H190.856L194.731 37.0001H192.205L188.31 33.64ZM191.084 31.96C191.995 31.96 192.452 31.6896 192.452 31.1296C192.452 30.5695 191.995 30.2992 191.084 30.2992H187.513V31.9792H191.084V31.96Z" fill="#B5B5B5"/>
<path d="M197.409 33.1956V36.9806H195.756V28.5996H197.409V32.3846L201.55 28.5996H204.019L199.441 32.7901L204.019 36.9806H201.55L197.409 33.1956Z" fill="#B5B5B5"/>
<path d="M19.7352 10.5825H12.4793C12.1565 10.5825 11.8905 10.7177 11.7006 10.9687C11.5107 11.2197 11.4157 11.5094 11.4157 11.857C11.4157 12.1853 11.5107 12.475 11.6816 12.7067C11.8715 12.9385 12.1185 13.0543 12.4604 13.0543H16.7341C17.8927 13.0543 18.8045 13.4985 19.4693 14.3675C20.0771 15.1592 20.381 16.1248 20.381 17.2834C20.381 18.4421 20.0771 19.4076 19.4693 20.1994C18.8045 21.0684 17.8927 21.5126 16.7341 21.5126H8.96537V18.5579H16.2403C16.5442 18.5579 16.7911 18.4228 16.981 18.1718C17.171 17.9207 17.2469 17.6117 17.2469 17.2641C17.2469 16.9165 17.152 16.6269 16.981 16.3951C16.81 16.1634 16.5631 16.0476 16.2403 16.0476H11.9665C10.8078 16.0476 9.89615 15.6227 9.21234 14.7537C8.60449 13.9812 8.3006 13.0157 8.3006 11.857C8.3006 10.7177 8.60449 9.77146 9.21234 8.97966C9.89615 8.11071 10.8078 7.6665 11.9665 7.6665H19.7162V10.5825H19.7352Z" fill="white"/>
<path d="M26.7437 7.47247L26.1169 7.80074C26.0219 7.85871 25.9839 7.97457 26.0409 8.07112C27.3515 10.485 27.9403 13.3237 27.5604 16.3362C26.8007 22.4192 22.0711 27.247 16.0878 28.0195C7.29343 29.1781 -0.133415 21.531 1.15821 12.5513C1.99396 6.71936 6.51463 2.10401 12.2319 1.19639C14.3593 0.868101 16.4107 1.0419 18.2722 1.64054C18.2532 1.7371 18.2532 1.81435 18.2532 1.9109C18.2532 2.97301 19.2599 3.80339 20.3426 3.4751C20.8365 3.32061 21.2353 2.91508 21.3872 2.41299C21.7102 1.29295 20.8934 0.288772 19.8487 0.288772C19.4308 0.288772 19.051 0.462572 18.747 0.732927C16.7336 0.0377281 14.4923 -0.194005 12.1749 0.153594C5.96379 1.09984 1.06323 6.1014 0.151501 12.4162C-1.23509 22.1682 6.93249 30.4526 16.5247 29.0043C22.6979 28.0774 27.5984 23.0951 28.5102 16.819C29.004 13.4396 28.3582 10.2147 26.8766 7.53044C26.8576 7.47247 26.8007 7.45315 26.7437 7.47247Z" fill="white"/>
</g>
<defs>
<clipPath id="clip0_23_43">
<rect width="204" height="37" fill="white"/>
</clipPath>
</defs>
</svg>
