<svg width="63" height="38" viewBox="0 0 63 38" fill="none" xmlns="http://www.w3.org/2000/svg">
<g clip-path="url(#clip0_23_61)">
<path d="M34.4902 19.924C34.4902 20.4504 34.7462 20.8768 35.2584 21.2035C35.7704 21.5121 36.3885 21.7661 37.1124 21.9658C37.8364 22.1473 38.5604 22.365 39.2844 22.6191C40.0084 22.855 40.6264 23.2724 41.1385 23.8714C41.6505 24.452 41.9066 25.2052 41.9066 26.1308C41.9066 27.365 41.4387 28.3541 40.5028 29.0981C39.5845 29.8422 38.4015 30.2143 36.9535 30.2143C35.6645 30.2143 34.5609 29.9238 33.6426 29.3431C32.7245 28.7624 32.0711 27.9911 31.6826 27.0292L33.6691 25.8586C33.881 26.5119 34.2783 27.0292 34.8611 27.4103C35.4437 27.7915 36.1413 27.982 36.9535 27.982C37.7128 27.982 38.3397 27.8368 38.8341 27.5465C39.3285 27.2379 39.5757 26.766 39.5757 26.1308C39.5757 25.6045 39.3197 25.1871 38.8076 24.8786C38.2955 24.5519 37.6775 24.2978 36.9535 24.1164C36.2296 23.9167 35.5056 23.6899 34.7816 23.4358C34.0576 23.1817 33.4396 22.7643 32.9275 22.1835C32.4154 21.6027 32.1594 20.8587 32.1594 19.9513C32.1594 18.7716 32.6008 17.8007 33.4837 17.0384C34.3843 16.2762 35.5056 15.895 36.8476 15.895C37.9247 15.895 38.8782 16.1491 39.7082 16.6573C40.5558 17.1473 41.1915 17.837 41.6153 18.7263L39.6817 19.8424C39.2049 18.6808 38.2602 18.1001 36.8476 18.1001C36.1942 18.1001 35.638 18.2634 35.1789 18.5901C34.7198 18.8987 34.4902 19.3433 34.4902 19.924Z" fill="white"/>
<path d="M53.6437 16.249H55.948V29.8604H53.6437V27.9004C52.7077 29.443 51.2774 30.2143 49.3528 30.2143C47.7988 30.2143 46.554 29.7152 45.6181 28.7171C44.6823 27.7008 44.2142 26.3305 44.2142 24.6065V16.249H46.5186V24.4703C46.5186 25.5774 46.81 26.4394 47.3927 27.0565C47.9754 27.6554 48.7789 27.9549 49.803 27.9549C50.9508 27.9549 51.8779 27.5919 52.5842 26.8659C53.2905 26.1218 53.6437 24.9876 53.6437 23.4631V16.249Z" fill="white"/>
<path d="M60.6218 13.7717C60.1803 13.7717 59.8095 13.6174 59.5093 13.3089C59.2092 13.0004 59.0591 12.6284 59.0591 12.1928C59.0591 11.7572 59.2092 11.3852 59.5093 11.0767C59.8095 10.75 60.1803 10.5867 60.6218 10.5867C61.0455 10.5867 61.4076 10.75 61.7077 11.0767C62.0079 11.3852 62.158 11.7572 62.158 12.1928C62.158 12.6284 62.0079 13.0004 61.7077 13.3089C61.4076 13.6174 61.0455 13.7717 60.6218 13.7717ZM59.4563 29.8603V16.249H61.7607V29.8603H59.4563Z" fill="white"/>
<path fill-rule="evenodd" clip-rule="evenodd" d="M1.68346 30.3691C3.92808 34.3653 7.94859 36.7507 12.4378 36.7507C16.9271 36.7507 20.9468 34.3653 23.1922 30.3691C25.4369 26.3736 25.4369 21.6028 23.1922 17.6066L13.7335 0.768832C13.1577 -0.256279 11.718 -0.256277 11.1422 0.768834L1.68346 17.6066C-0.561154 21.602 -0.561154 26.3729 1.68346 30.3691ZM9.77331 8.77928L11.7899 5.1892C12.0779 4.67663 12.7977 4.67663 13.0857 5.1892L20.844 19.0005C22.2694 21.5378 22.5369 24.4745 21.6466 27.1617C21.5539 26.7233 21.4244 26.2747 21.2497 25.8216C20.1781 23.042 17.7549 20.8971 14.0464 19.446C11.4966 18.452 9.86907 16.99 9.20774 15.1004C8.35592 12.665 9.24563 10.0092 9.77331 8.77928ZM6.33452 14.901L4.03166 19.0005C2.27694 22.1241 2.27694 25.853 4.03166 28.9767C5.78638 32.1003 8.92839 33.9644 12.4378 33.9644C14.7687 33.9644 16.9382 33.1413 18.6464 31.6733C18.8692 31.0968 19.5591 28.9867 18.7067 26.8118C17.9195 24.8035 16.0251 23.2003 13.0757 22.0456C9.74166 20.7458 7.57565 18.7166 6.63902 16.0161C6.51001 15.6443 6.40978 15.2717 6.33452 14.901Z" fill="white"/>
</g>
<defs>
<clipPath id="clip0_23_61">
<rect width="63" height="37.5968" fill="white"/>
</clipPath>
</defs>
</svg>
